<svg width="54" height="41" viewBox="0 0 54 41" fill="none" xmlns="http://www.w3.org/2000/svg">
<g filter="url(#filter0_di_2209_80)">
<circle cx="22" cy="9.99999" r="6.99999" fill="#FBCA1C"/>
<circle cx="22" cy="9.99999" r="6.99999" fill="url(#paint0_radial_2209_80)" fill-opacity="0.2"/>
</g>
<g filter="url(#filter1_di_2209_80)">
<path d="M35.657 14.3333C35.6634 14.223 35.6666 14.1119 35.6666 14C35.6666 10.8704 33.1296 8.33334 30 8.33334C28.494 8.33334 27.1253 8.9208 26.1104 9.87906C25.597 9.74056 25.0571 9.66668 24.5 9.66668C22.4849 9.66668 20.6955 10.6332 19.5702 12.128C19.2272 12.0444 18.8688 12 18.5 12C16.0147 12 14 14.0147 14 16.5C14 16.5116 14 16.5232 14.0001 16.5348C14 16.5429 14 16.551 14 16.5591C14 19.564 16.436 22 19.4409 22H28C32.2342 22 35.6666 18.5675 35.6666 14.3333H35.657Z" fill="white"/>
<path d="M35.657 14.3333C35.6634 14.223 35.6666 14.1119 35.6666 14C35.6666 10.8704 33.1296 8.33334 30 8.33334C28.494 8.33334 27.1253 8.9208 26.1104 9.87906C25.597 9.74056 25.0571 9.66668 24.5 9.66668C22.4849 9.66668 20.6955 10.6332 19.5702 12.128C19.2272 12.0444 18.8688 12 18.5 12C16.0147 12 14 14.0147 14 16.5C14 16.5116 14 16.5232 14.0001 16.5348C14 16.5429 14 16.551 14 16.5591C14 19.564 16.436 22 19.4409 22H28C32.2342 22 35.6666 18.5675 35.6666 14.3333H35.657Z" fill="url(#paint1_radial_2209_80)" fill-opacity="0.2"/>
</g>
<g filter="url(#filter2_di_2209_80)">
<path d="M26 17.3333C26 14.3878 28.3878 12 31.3333 12H34C36.2091 12 38 13.7909 38 16V16C38 18.2091 36.2091 20 34 20H28.6667C27.1939 20 26 18.8061 26 17.3333V17.3333Z" fill="white"/>
<path d="M26 17.3333C26 14.3878 28.3878 12 31.3333 12H34C36.2091 12 38 13.7909 38 16V16C38 18.2091 36.2091 20 34 20H28.6667C27.1939 20 26 18.8061 26 17.3333V17.3333Z" fill="url(#paint2_radial_2209_80)" fill-opacity="0.2"/>
</g>
<g filter="url(#filter3_di_2209_80)">
<path d="M21 19C21 16.7909 19.2091 15 17 15H15C13.3431 15 12 16.3431 12 18V18C12 19.6569 13.3431 21 15 21H19C20.1046 21 21 20.1046 21 19V19Z" fill="white"/>
<path d="M21 19C21 16.7909 19.2091 15 17 15H15C13.3431 15 12 16.3431 12 18V18C12 19.6569 13.3431 21 15 21H19C20.1046 21 21 20.1046 21 19V19Z" fill="url(#paint3_radial_2209_80)" fill-opacity="0.2"/>
</g>
<g filter="url(#filter4_dii_2209_80)">
<path d="M19 25.1415C19 24.511 19.511 24 20.1415 24H20.9975V24.8561C20.9975 25.4865 20.4865 25.9975 19.8561 25.9975V25.9975C19.3833 25.9975 19 25.6143 19 25.1415V25.1415Z" fill="#379ADC"/>
</g>
<g filter="url(#filter5_dii_2209_80)">
<path d="M24 25.1415C24 24.511 24.511 24 25.1415 24H25.9975V24.8561C25.9975 25.4865 25.4865 25.9975 24.8561 25.9975V25.9975C24.3833 25.9975 24 25.6143 24 25.1415V25.1415Z" fill="#379ADC"/>
</g>
<g filter="url(#filter6_dii_2209_80)">
<path d="M29 25.1415C29 24.511 29.511 24 30.1415 24H30.9975V24.8561C30.9975 25.4865 30.4865 25.9975 29.8561 25.9975V25.9975C29.3833 25.9975 29 25.6143 29 25.1415V25.1415Z" fill="#379ADC"/>
</g>
<g filter="url(#filter7_dii_2209_80)">
<path d="M22 29.1415C22 28.511 22.511 28 23.1415 28H23.9975V28.8561C23.9975 29.4865 23.4865 29.9975 22.8561 29.9975V29.9975C22.3833 29.9975 22 29.6143 22 29.1415V29.1415Z" fill="#379ADC"/>
</g>
<g filter="url(#filter8_dii_2209_80)">
<path d="M27 29.1415C27 28.511 27.511 28 28.1415 28H28.9975V28.8561C28.9975 29.4865 28.4865 29.9975 27.8561 29.9975V29.9975C27.3833 29.9975 27 29.6143 27 29.1415V29.1415Z" fill="#379ADC"/>
</g>
<defs>
<filter id="filter0_di_2209_80" x="12.3333" y="0.333336" width="19.3333" height="19.3333" filterUnits="userSpaceOnUse" color-interpolation-filters="sRGB">
<feFlood flood-opacity="0" result="BackgroundImageFix"/>
<feColorMatrix in="SourceAlpha" type="matrix" values="0 0 0 0 0 0 0 0 0 0 0 0 0 0 0 0 0 0 127 0" result="hardAlpha"/>
<feMorphology radius="0.999999" operator="dilate" in="SourceAlpha" result="effect1_dropShadow_2209_80"/>
<feOffset/>
<feGaussianBlur stdDeviation="0.833332"/>
<feComposite in2="hardAlpha" operator="out"/>
<feColorMatrix type="matrix" values="0 0 0 0 0.984314 0 0 0 0 0.792157 0 0 0 0 0.109804 0 0 0 0.2 0"/>
<feBlend mode="normal" in2="BackgroundImageFix" result="effect1_dropShadow_2209_80"/>
<feBlend mode="normal" in="SourceGraphic" in2="effect1_dropShadow_2209_80" result="shape"/>
<feColorMatrix in="SourceAlpha" type="matrix" values="0 0 0 0 0 0 0 0 0 0 0 0 0 0 0 0 0 0 127 0" result="hardAlpha"/>
<feOffset/>
<feGaussianBlur stdDeviation="1.5"/>
<feComposite in2="hardAlpha" operator="arithmetic" k2="-1" k3="1"/>
<feColorMatrix type="matrix" values="0 0 0 0 0.984314 0 0 0 0 0.529569 0 0 0 0 0.109804 0 0 0 0.5 0"/>
<feBlend mode="normal" in2="shape" result="effect2_innerShadow_2209_80"/>
</filter>
<filter id="filter1_di_2209_80" x="8.66667" y="6.33335" width="32.3333" height="24.3333" filterUnits="userSpaceOnUse" color-interpolation-filters="sRGB">
<feFlood flood-opacity="0" result="BackgroundImageFix"/>
<feColorMatrix in="SourceAlpha" type="matrix" values="0 0 0 0 0 0 0 0 0 0 0 0 0 0 0 0 0 0 127 0" result="hardAlpha"/>
<feOffset dy="3.33333"/>
<feGaussianBlur stdDeviation="2.66666"/>
<feComposite in2="hardAlpha" operator="out"/>
<feColorMatrix type="matrix" values="0 0 0 0 0.301961 0 0 0 0 0.368627 0 0 0 0 0.435294 0 0 0 0.08 0"/>
<feBlend mode="normal" in2="BackgroundImageFix" result="effect1_dropShadow_2209_80"/>
<feBlend mode="normal" in="SourceGraphic" in2="effect1_dropShadow_2209_80" result="shape"/>
<feColorMatrix in="SourceAlpha" type="matrix" values="0 0 0 0 0 0 0 0 0 0 0 0 0 0 0 0 0 0 127 0" result="hardAlpha"/>
<feOffset/>
<feGaussianBlur stdDeviation="0.999999"/>
<feComposite in2="hardAlpha" operator="arithmetic" k2="-1" k3="1"/>
<feColorMatrix type="matrix" values="0 0 0 0 0.301961 0 0 0 0 0.368627 0 0 0 0 0.435294 0 0 0 0.08 0"/>
<feBlend mode="normal" in2="shape" result="effect2_innerShadow_2209_80"/>
</filter>
<filter id="filter2_di_2209_80" x="10" y="1" width="44" height="40" filterUnits="userSpaceOnUse" color-interpolation-filters="sRGB">
<feFlood flood-opacity="0" result="BackgroundImageFix"/>
<feColorMatrix in="SourceAlpha" type="matrix" values="0 0 0 0 0 0 0 0 0 0 0 0 0 0 0 0 0 0 127 0" result="hardAlpha"/>
<feOffset dy="5"/>
<feGaussianBlur stdDeviation="8"/>
<feComposite in2="hardAlpha" operator="out"/>
<feColorMatrix type="matrix" values="0 0 0 0 0 0 0 0 0 0 0 0 0 0 0 0 0 0 0.14 0"/>
<feBlend mode="normal" in2="BackgroundImageFix" result="effect1_dropShadow_2209_80"/>
<feBlend mode="normal" in="SourceGraphic" in2="effect1_dropShadow_2209_80" result="shape"/>
<feColorMatrix in="SourceAlpha" type="matrix" values="0 0 0 0 0 0 0 0 0 0 0 0 0 0 0 0 0 0 127 0" result="hardAlpha"/>
<feOffset/>
<feGaussianBlur stdDeviation="5.5"/>
<feComposite in2="hardAlpha" operator="arithmetic" k2="-1" k3="1"/>
<feColorMatrix type="matrix" values="0 0 0 0 0.301961 0 0 0 0 0.368627 0 0 0 0 0.435294 0 0 0 0.08 0"/>
<feBlend mode="normal" in2="shape" result="effect2_innerShadow_2209_80"/>
</filter>
<filter id="filter3_di_2209_80" x="0" y="6" width="33" height="30" filterUnits="userSpaceOnUse" color-interpolation-filters="sRGB">
<feFlood flood-opacity="0" result="BackgroundImageFix"/>
<feColorMatrix in="SourceAlpha" type="matrix" values="0 0 0 0 0 0 0 0 0 0 0 0 0 0 0 0 0 0 127 0" result="hardAlpha"/>
<feOffset dy="3"/>
<feGaussianBlur stdDeviation="6"/>
<feComposite in2="hardAlpha" operator="out"/>
<feColorMatrix type="matrix" values="0 0 0 0 0.301961 0 0 0 0 0.368627 0 0 0 0 0.435294 0 0 0 0.14 0"/>
<feBlend mode="normal" in2="BackgroundImageFix" result="effect1_dropShadow_2209_80"/>
<feBlend mode="normal" in="SourceGraphic" in2="effect1_dropShadow_2209_80" result="shape"/>
<feColorMatrix in="SourceAlpha" type="matrix" values="0 0 0 0 0 0 0 0 0 0 0 0 0 0 0 0 0 0 127 0" result="hardAlpha"/>
<feOffset/>
<feGaussianBlur stdDeviation="2"/>
<feComposite in2="hardAlpha" operator="arithmetic" k2="-1" k3="1"/>
<feColorMatrix type="matrix" values="0 0 0 0 0.301961 0 0 0 0 0.368627 0 0 0 0 0.435294 0 0 0 0.11 0"/>
<feBlend mode="normal" in2="shape" result="effect2_innerShadow_2209_80"/>
</filter>
<filter id="filter4_dii_2209_80" x="15.8039" y="22.402" width="8.38971" height="8.38971" filterUnits="userSpaceOnUse" color-interpolation-filters="sRGB">
<feFlood flood-opacity="0" result="BackgroundImageFix"/>
<feColorMatrix in="SourceAlpha" type="matrix" values="0 0 0 0 0 0 0 0 0 0 0 0 0 0 0 0 0 0 127 0" result="hardAlpha"/>
<feOffset dy="1.59804"/>
<feGaussianBlur stdDeviation="1.59804"/>
<feComposite in2="hardAlpha" operator="out"/>
<feColorMatrix type="matrix" values="0 0 0 0 0.282353 0 0 0 0 0.517647 0 0 0 0 0.933333 0 0 0 0.2 0"/>
<feBlend mode="normal" in2="BackgroundImageFix" result="effect1_dropShadow_2209_80"/>
<feBlend mode="normal" in="SourceGraphic" in2="effect1_dropShadow_2209_80" result="shape"/>
<feColorMatrix in="SourceAlpha" type="matrix" values="0 0 0 0 0 0 0 0 0 0 0 0 0 0 0 0 0 0 127 0" result="hardAlpha"/>
<feOffset/>
<feGaussianBlur stdDeviation="0.39951"/>
<feComposite in2="hardAlpha" operator="arithmetic" k2="-1" k3="1"/>
<feColorMatrix type="matrix" values="0 0 0 0 0 0 0 0 0 0 0 0 0 0 0 0 0 0 0.25 0"/>
<feBlend mode="normal" in2="shape" result="effect2_innerShadow_2209_80"/>
<feColorMatrix in="SourceAlpha" type="matrix" values="0 0 0 0 0 0 0 0 0 0 0 0 0 0 0 0 0 0 127 0" result="hardAlpha"/>
<feOffset dy="-0.39951"/>
<feGaussianBlur stdDeviation="0.39951"/>
<feComposite in2="hardAlpha" operator="arithmetic" k2="-1" k3="1"/>
<feColorMatrix type="matrix" values="0 0 0 0 0 0 0 0 0 0 0 0 0 0 0 0 0 0 0.25 0"/>
<feBlend mode="normal" in2="effect2_innerShadow_2209_80" result="effect3_innerShadow_2209_80"/>
</filter>
<filter id="filter5_dii_2209_80" x="20.8039" y="22.402" width="8.38971" height="8.38971" filterUnits="userSpaceOnUse" color-interpolation-filters="sRGB">
<feFlood flood-opacity="0" result="BackgroundImageFix"/>
<feColorMatrix in="SourceAlpha" type="matrix" values="0 0 0 0 0 0 0 0 0 0 0 0 0 0 0 0 0 0 127 0" result="hardAlpha"/>
<feOffset dy="1.59804"/>
<feGaussianBlur stdDeviation="1.59804"/>
<feComposite in2="hardAlpha" operator="out"/>
<feColorMatrix type="matrix" values="0 0 0 0 0.282353 0 0 0 0 0.517647 0 0 0 0 0.933333 0 0 0 0.2 0"/>
<feBlend mode="normal" in2="BackgroundImageFix" result="effect1_dropShadow_2209_80"/>
<feBlend mode="normal" in="SourceGraphic" in2="effect1_dropShadow_2209_80" result="shape"/>
<feColorMatrix in="SourceAlpha" type="matrix" values="0 0 0 0 0 0 0 0 0 0 0 0 0 0 0 0 0 0 127 0" result="hardAlpha"/>
<feOffset/>
<feGaussianBlur stdDeviation="0.39951"/>
<feComposite in2="hardAlpha" operator="arithmetic" k2="-1" k3="1"/>
<feColorMatrix type="matrix" values="0 0 0 0 0 0 0 0 0 0 0 0 0 0 0 0 0 0 0.25 0"/>
<feBlend mode="normal" in2="shape" result="effect2_innerShadow_2209_80"/>
<feColorMatrix in="SourceAlpha" type="matrix" values="0 0 0 0 0 0 0 0 0 0 0 0 0 0 0 0 0 0 127 0" result="hardAlpha"/>
<feOffset dy="-0.39951"/>
<feGaussianBlur stdDeviation="0.39951"/>
<feComposite in2="hardAlpha" operator="arithmetic" k2="-1" k3="1"/>
<feColorMatrix type="matrix" values="0 0 0 0 0 0 0 0 0 0 0 0 0 0 0 0 0 0 0.25 0"/>
<feBlend mode="normal" in2="effect2_innerShadow_2209_80" result="effect3_innerShadow_2209_80"/>
</filter>
<filter id="filter6_dii_2209_80" x="25.8039" y="22.402" width="8.38971" height="8.38971" filterUnits="userSpaceOnUse" color-interpolation-filters="sRGB">
<feFlood flood-opacity="0" result="BackgroundImageFix"/>
<feColorMatrix in="SourceAlpha" type="matrix" values="0 0 0 0 0 0 0 0 0 0 0 0 0 0 0 0 0 0 127 0" result="hardAlpha"/>
<feOffset dy="1.59804"/>
<feGaussianBlur stdDeviation="1.59804"/>
<feComposite in2="hardAlpha" operator="out"/>
<feColorMatrix type="matrix" values="0 0 0 0 0.282353 0 0 0 0 0.517647 0 0 0 0 0.933333 0 0 0 0.2 0"/>
<feBlend mode="normal" in2="BackgroundImageFix" result="effect1_dropShadow_2209_80"/>
<feBlend mode="normal" in="SourceGraphic" in2="effect1_dropShadow_2209_80" result="shape"/>
<feColorMatrix in="SourceAlpha" type="matrix" values="0 0 0 0 0 0 0 0 0 0 0 0 0 0 0 0 0 0 127 0" result="hardAlpha"/>
<feOffset/>
<feGaussianBlur stdDeviation="0.39951"/>
<feComposite in2="hardAlpha" operator="arithmetic" k2="-1" k3="1"/>
<feColorMatrix type="matrix" values="0 0 0 0 0 0 0 0 0 0 0 0 0 0 0 0 0 0 0.25 0"/>
<feBlend mode="normal" in2="shape" result="effect2_innerShadow_2209_80"/>
<feColorMatrix in="SourceAlpha" type="matrix" values="0 0 0 0 0 0 0 0 0 0 0 0 0 0 0 0 0 0 127 0" result="hardAlpha"/>
<feOffset dy="-0.39951"/>
<feGaussianBlur stdDeviation="0.39951"/>
<feComposite in2="hardAlpha" operator="arithmetic" k2="-1" k3="1"/>
<feColorMatrix type="matrix" values="0 0 0 0 0 0 0 0 0 0 0 0 0 0 0 0 0 0 0.25 0"/>
<feBlend mode="normal" in2="effect2_innerShadow_2209_80" result="effect3_innerShadow_2209_80"/>
</filter>
<filter id="filter7_dii_2209_80" x="18.8039" y="26.402" width="8.38971" height="8.38971" filterUnits="userSpaceOnUse" color-interpolation-filters="sRGB">
<feFlood flood-opacity="0" result="BackgroundImageFix"/>
<feColorMatrix in="SourceAlpha" type="matrix" values="0 0 0 0 0 0 0 0 0 0 0 0 0 0 0 0 0 0 127 0" result="hardAlpha"/>
<feOffset dy="1.59804"/>
<feGaussianBlur stdDeviation="1.59804"/>
<feComposite in2="hardAlpha" operator="out"/>
<feColorMatrix type="matrix" values="0 0 0 0 0.282353 0 0 0 0 0.517647 0 0 0 0 0.933333 0 0 0 0.2 0"/>
<feBlend mode="normal" in2="BackgroundImageFix" result="effect1_dropShadow_2209_80"/>
<feBlend mode="normal" in="SourceGraphic" in2="effect1_dropShadow_2209_80" result="shape"/>
<feColorMatrix in="SourceAlpha" type="matrix" values="0 0 0 0 0 0 0 0 0 0 0 0 0 0 0 0 0 0 127 0" result="hardAlpha"/>
<feOffset/>
<feGaussianBlur stdDeviation="0.39951"/>
<feComposite in2="hardAlpha" operator="arithmetic" k2="-1" k3="1"/>
<feColorMatrix type="matrix" values="0 0 0 0 0 0 0 0 0 0 0 0 0 0 0 0 0 0 0.25 0"/>
<feBlend mode="normal" in2="shape" result="effect2_innerShadow_2209_80"/>
<feColorMatrix in="SourceAlpha" type="matrix" values="0 0 0 0 0 0 0 0 0 0 0 0 0 0 0 0 0 0 127 0" result="hardAlpha"/>
<feOffset dy="-0.39951"/>
<feGaussianBlur stdDeviation="0.39951"/>
<feComposite in2="hardAlpha" operator="arithmetic" k2="-1" k3="1"/>
<feColorMatrix type="matrix" values="0 0 0 0 0 0 0 0 0 0 0 0 0 0 0 0 0 0 0.25 0"/>
<feBlend mode="normal" in2="effect2_innerShadow_2209_80" result="effect3_innerShadow_2209_80"/>
</filter>
<filter id="filter8_dii_2209_80" x="23.8039" y="26.402" width="8.38971" height="8.38971" filterUnits="userSpaceOnUse" color-interpolation-filters="sRGB">
<feFlood flood-opacity="0" result="BackgroundImageFix"/>
<feColorMatrix in="SourceAlpha" type="matrix" values="0 0 0 0 0 0 0 0 0 0 0 0 0 0 0 0 0 0 127 0" result="hardAlpha"/>
<feOffset dy="1.59804"/>
<feGaussianBlur stdDeviation="1.59804"/>
<feComposite in2="hardAlpha" operator="out"/>
<feColorMatrix type="matrix" values="0 0 0 0 0.282353 0 0 0 0 0.517647 0 0 0 0 0.933333 0 0 0 0.2 0"/>
<feBlend mode="normal" in2="BackgroundImageFix" result="effect1_dropShadow_2209_80"/>
<feBlend mode="normal" in="SourceGraphic" in2="effect1_dropShadow_2209_80" result="shape"/>
<feColorMatrix in="SourceAlpha" type="matrix" values="0 0 0 0 0 0 0 0 0 0 0 0 0 0 0 0 0 0 127 0" result="hardAlpha"/>
<feOffset/>
<feGaussianBlur stdDeviation="0.39951"/>
<feComposite in2="hardAlpha" operator="arithmetic" k2="-1" k3="1"/>
<feColorMatrix type="matrix" values="0 0 0 0 0 0 0 0 0 0 0 0 0 0 0 0 0 0 0.25 0"/>
<feBlend mode="normal" in2="shape" result="effect2_innerShadow_2209_80"/>
<feColorMatrix in="SourceAlpha" type="matrix" values="0 0 0 0 0 0 0 0 0 0 0 0 0 0 0 0 0 0 127 0" result="hardAlpha"/>
<feOffset dy="-0.39951"/>
<feGaussianBlur stdDeviation="0.39951"/>
<feComposite in2="hardAlpha" operator="arithmetic" k2="-1" k3="1"/>
<feColorMatrix type="matrix" values="0 0 0 0 0 0 0 0 0 0 0 0 0 0 0 0 0 0 0.25 0"/>
<feBlend mode="normal" in2="effect2_innerShadow_2209_80" result="effect3_innerShadow_2209_80"/>
</filter>
<radialGradient id="paint0_radial_2209_80" cx="0" cy="0" r="1" gradientUnits="userSpaceOnUse" gradientTransform="translate(20.3333 7.33333) rotate(50.7106) scale(9.4751 6.61925)">
<stop stop-color="#FBCA1C"/>
<stop offset="1" stop-color="#E4750E"/>
</radialGradient>
<radialGradient id="paint1_radial_2209_80" cx="0" cy="0" r="1" gradientUnits="userSpaceOnUse" gradientTransform="translate(29.1667 9.66667) rotate(121.827) scale(17.066 27.0559)">
<stop stop-opacity="0"/>
<stop offset="1" stop-color="#4D5E6F"/>
</radialGradient>
<radialGradient id="paint2_radial_2209_80" cx="0" cy="0" r="1" gradientUnits="userSpaceOnUse" gradientTransform="translate(24.5517 8.66667) rotate(43.3634) scale(16.5059 11.2876)">
<stop stop-color="#4D5E6F" stop-opacity="0"/>
<stop offset="1" stop-color="#4D5E6F" stop-opacity="0.54"/>
</radialGradient>
<radialGradient id="paint3_radial_2209_80" cx="0" cy="0" r="1" gradientUnits="userSpaceOnUse" gradientTransform="translate(16.5 13.5882) rotate(90) scale(8.11765 12.1765)">
<stop stop-color="#4D5E6F" stop-opacity="0"/>
<stop offset="1" stop-color="#4D5E6F" stop-opacity="0.62"/>
</radialGradient>
</defs>
</svg>
